<svg xmlns="http://www.w3.org/2000/svg" width="1920" height="901" style="cursor: move;"><g transform="translate(-809.3353217411336,-532.5198849897663) scale(1.9372363784532562)"><path class="link" marker-end="url(#arrow)" d="M878,330.5, 1021,380.5" style="stroke-width: 0.5; stroke-opacity: 1; stroke: rgb(140, 140, 255);"></path><path class="link" marker-end="url(#arrow)" d="M878,330.5, 1021,420.5" style="stroke-width: 0.5; stroke-opacity: 1; stroke: rgb(255, 86, 86);"></path><path class="link" marker-end="url(#arrow)" d="M878,350.5, 1021,380.5" style="stroke-width: 0.5; stroke-opacity: 1; stroke: rgb(96, 96, 255);"></path><path class="link" marker-end="url(#arrow)" d="M878,350.5, 1021,420.5" style="stroke-width: 0.5; stroke-opacity: 1; stroke: rgb(255, 109, 109);"></path><path class="link" marker-end="url(#arrow)" d="M878,370.5, 1021,380.5" style="stroke-width: 0.5; stroke-opacity: 1; stroke: rgb(255, 162, 162);"></path><path class="link" marker-end="url(#arrow)" d="M878,370.5, 1021,420.5" style="stroke-width: 0.5; stroke-opacity: 1; stroke: rgb(113, 113, 255);"></path><path class="link" marker-end="url(#arrow)" d="M878,390.5, 1021,380.5" style="stroke-width: 0.5; stroke-opacity: 1; stroke: rgb(64, 64, 255);"></path><path class="link" marker-end="url(#arrow)" d="M878,390.5, 1021,420.5" style="stroke-width: 0.5; stroke-opacity: 1; stroke: rgb(159, 159, 255);"></path><path class="link" marker-end="url(#arrow)" d="M878,410.5, 1021,380.5" style="stroke-width: 0.5; stroke-opacity: 1; stroke: rgb(255, 142, 142);"></path><path class="link" marker-end="url(#arrow)" d="M878,410.5, 1021,420.5" style="stroke-width: 0.5; stroke-opacity: 1; stroke: rgb(255, 33, 33);"></path><path class="link" marker-end="url(#arrow)" d="M878,430.5, 1021,380.5" style="stroke-width: 0.5; stroke-opacity: 1; stroke: rgb(88, 88, 255);"></path><path class="link" marker-end="url(#arrow)" d="M878,430.5, 1021,420.5" style="stroke-width: 0.5; stroke-opacity: 1; stroke: rgb(135, 135, 255);"></path><path class="link" marker-end="url(#arrow)" d="M878,450.5, 1021,380.5" style="stroke-width: 0.5; stroke-opacity: 1; stroke: rgb(255, 193, 193);"></path><path class="link" marker-end="url(#arrow)" d="M878,450.5, 1021,420.5" style="stroke-width: 0.5; stroke-opacity: 1; stroke: rgb(75, 75, 255);"></path><path class="link" marker-end="url(#arrow)" d="M878,470.5, 1021,380.5" style="stroke-width: 0.5; stroke-opacity: 1; stroke: rgb(134, 134, 255);"></path><path class="link" marker-end="url(#arrow)" d="M878,470.5, 1021,420.5" style="stroke-width: 0.5; stroke-opacity: 1; stroke: rgb(102, 102, 255);"></path><path class="link" marker-end="url(#arrow)" d="M878,330.5, 1021,460.5" style="stroke-width: 0.5; stroke-opacity: 1; stroke: rgb(255, 1, 1);"></path><path class="link" marker-end="url(#arrow)" d="M878,350.5, 1021,460.5" style="stroke-width: 0.5; stroke-opacity: 1; stroke: rgb(255, 185, 185);"></path><path class="link" marker-end="url(#arrow)" d="M878,370.5, 1021,460.5" style="stroke-width: 0.5; stroke-opacity: 1; stroke: rgb(83, 83, 255);"></path><path class="link" marker-end="url(#arrow)" d="M878,390.5, 1021,460.5" style="stroke-width: 0.5; stroke-opacity: 1; stroke: rgb(196, 196, 255);"></path><path class="link" marker-end="url(#arrow)" d="M878,410.5, 1021,460.5" style="stroke-width: 0.5; stroke-opacity: 1; stroke: rgb(255, 84, 84);"></path><path class="link" marker-end="url(#arrow)" d="M878,430.5, 1021,460.5" style="stroke-width: 0.5; stroke-opacity: 1; stroke: rgb(255, 87, 87);"></path><path class="link" marker-end="url(#arrow)" d="M878,450.5, 1021,460.5" style="stroke-width: 0.5; stroke-opacity: 1; stroke: rgb(25, 25, 255);"></path><path class="link" marker-end="url(#arrow)" d="M878,470.5, 1021,460.5" style="stroke-width: 0.5; stroke-opacity: 1; stroke: rgb(255, 122, 122);"></path><path class="link" marker-end="url(#arrow)" d="M878,330.5, 1021,500.5" style="stroke-width: 0.5; stroke-opacity: 1; stroke: rgb(47, 47, 255);"></path><path class="link" marker-end="url(#arrow)" d="M878,350.5, 1021,500.5" style="stroke-width: 0.5; stroke-opacity: 1; stroke: rgb(255, 101, 101);"></path><path class="link" marker-end="url(#arrow)" d="M878,370.5, 1021,500.5" style="stroke-width: 0.5; stroke-opacity: 1; stroke: rgb(255, 106, 106);"></path><path class="link" marker-end="url(#arrow)" d="M878,390.5, 1021,500.5" style="stroke-width: 0.5; stroke-opacity: 1; stroke: rgb(101, 101, 255);"></path><path class="link" marker-end="url(#arrow)" d="M878,410.5, 1021,500.5" style="stroke-width: 0.5; stroke-opacity: 1; stroke: rgb(255, 92, 92);"></path><path class="link" marker-end="url(#arrow)" d="M878,430.5, 1021,500.5" style="stroke-width: 0.5; stroke-opacity: 1; stroke: rgb(255, 69, 69);"></path><path class="link" marker-end="url(#arrow)" d="M878,450.5, 1021,500.5" style="stroke-width: 0.5; stroke-opacity: 1; stroke: rgb(255, 116, 116);"></path><path class="link" marker-end="url(#arrow)" d="M878,470.5, 1021,500.5" style="stroke-width: 0.5; stroke-opacity: 1; stroke: rgb(255, 171, 171);"></path><path class="link" marker-end="url(#arrow)" d="M878,490.5, 1021,380.5" style="stroke-width: 0.5; stroke-opacity: 1; stroke: rgb(4, 4, 255);"></path><path class="link" marker-end="url(#arrow)" d="M878,490.5, 1021,420.5" style="stroke-width: 0.5; stroke-opacity: 1; stroke: rgb(255, 132, 132);"></path><path class="link" marker-end="url(#arrow)" d="M878,490.5, 1021,460.5" style="stroke-width: 0.5; stroke-opacity: 1; stroke: rgb(255, 148, 148);"></path><path class="link" marker-end="url(#arrow)" d="M878,490.5, 1021,500.5" style="stroke-width: 0.5; stroke-opacity: 1; stroke: rgb(109, 109, 255);"></path><path class="link" marker-end="url(#arrow)" d="M878,510.5, 1021,380.5" style="stroke-width: 0.5; stroke-opacity: 1; stroke: rgb(97, 97, 255);"></path><path class="link" marker-end="url(#arrow)" d="M878,510.5, 1021,420.5" style="stroke-width: 0.5; stroke-opacity: 1; stroke: rgb(255, 174, 174);"></path><path class="link" marker-end="url(#arrow)" d="M878,510.5, 1021,460.5" style="stroke-width: 0.5; stroke-opacity: 1; stroke: rgb(162, 162, 255);"></path><path class="link" marker-end="url(#arrow)" d="M878,510.5, 1021,500.5" style="stroke-width: 0.5; stroke-opacity: 1; stroke: rgb(135, 135, 255);"></path><path class="link" marker-end="url(#arrow)" d="M878,530.5, 1021,380.5" style="stroke-width: 0.5; stroke-opacity: 1; stroke: rgb(255, 66, 66);"></path><path class="link" marker-end="url(#arrow)" d="M878,530.5, 1021,420.5" style="stroke-width: 0.5; stroke-opacity: 1; stroke: rgb(255, 254, 254);"></path><path class="link" marker-end="url(#arrow)" d="M878,530.5, 1021,460.5" style="stroke-width: 0.5; stroke-opacity: 1; stroke: rgb(255, 22, 22);"></path><path class="link" marker-end="url(#arrow)" d="M878,530.5, 1021,500.5" style="stroke-width: 0.5; stroke-opacity: 1; stroke: rgb(255, 195, 195);"></path><path class="link" marker-end="url(#arrow)" d="M878,550.5, 1021,380.5" style="stroke-width: 0.5; stroke-opacity: 1; stroke: rgb(31, 31, 255);"></path><path class="link" marker-end="url(#arrow)" d="M878,550.5, 1021,420.5" style="stroke-width: 0.5; stroke-opacity: 1; stroke: rgb(196, 196, 255);"></path><path class="link" marker-end="url(#arrow)" d="M878,550.5, 1021,460.5" style="stroke-width: 0.5; stroke-opacity: 1; stroke: rgb(226, 226, 255);"></path><path class="link" marker-end="url(#arrow)" d="M878,550.5, 1021,500.5" style="stroke-width: 0.5; stroke-opacity: 1; stroke: rgb(255, 12, 12);"></path><circle r="10" class="node" id="0_0" cx="878" cy="330.5" style="fill: rgb(255, 255, 255); stroke: rgb(51, 51, 51);"></circle><circle r="10" class="node" id="0_1" cx="878" cy="350.5" style="fill: rgb(255, 255, 255); stroke: rgb(51, 51, 51);"></circle><circle r="10" class="node" id="0_2" cx="878" cy="370.5" style="fill: rgb(255, 255, 255); stroke: rgb(51, 51, 51);"></circle><circle r="10" class="node" id="0_3" cx="878" cy="390.5" style="fill: rgb(255, 255, 255); stroke: rgb(51, 51, 51);"></circle><text class="text" dy=".35em" x="843" y="590.5" style="font-size: 12px;">Input Layer ∈ ℝ¹²</text><circle r="10" class="node" id="0_4" cx="878" cy="410.5" style="fill: rgb(255, 255, 255); stroke: rgb(51, 51, 51);"></circle><circle r="10" class="node" id="0_5" cx="878" cy="430.5" style="fill: rgb(255, 255, 255); stroke: rgb(51, 51, 51);"></circle><circle r="10" class="node" id="0_6" cx="878" cy="450.5" style="fill: rgb(255, 255, 255); stroke: rgb(51, 51, 51);"></circle><circle r="10" class="node" id="0_7" cx="878" cy="470.5" style="fill: rgb(255, 255, 255); stroke: rgb(51, 51, 51);"></circle><circle r="10" class="node" id="0_8" cx="878" cy="490.5" style="fill: rgb(255, 255, 255); stroke: rgb(51, 51, 51);"></circle><circle r="10" class="node" id="0_9" cx="878" cy="510.5" style="fill: rgb(255, 255, 255); stroke: rgb(51, 51, 51);"></circle><circle r="10" class="node" id="0_10" cx="878" cy="530.5" style="fill: rgb(255, 255, 255); stroke: rgb(51, 51, 51);"></circle><circle r="10" class="node" id="0_11" cx="878" cy="550.5" style="fill: rgb(255, 255, 255); stroke: rgb(51, 51, 51);"></circle><circle r="10" class="node" id="1_0" cx="1021" cy="380.5" style="fill: rgb(255, 255, 255); stroke: rgb(51, 51, 51);"></circle><circle r="10" class="node" id="1_1" cx="1021" cy="420.5" style="fill: rgb(255, 255, 255); stroke: rgb(51, 51, 51);"></circle><text class="text" dy=".35em" x="986" y="590.5" style="font-size: 12px;">Output Layer ∈ ℝ⁴</text><circle r="10" class="node" id="1_2" cx="1021" cy="460.5" style="fill: rgb(255, 255, 255); stroke: rgb(51, 51, 51);"></circle><circle r="10" class="node" id="1_3" cx="1021" cy="500.5" style="fill: rgb(255, 255, 255); stroke: rgb(51, 51, 51);"></circle></g><defs><marker id="arrow" viewBox="0 -5 10 10" markerWidth="7" markerHeight="7" orient="auto" refX="40"><path d="M0,-5L10,0L0,5" style="stroke: rgb(80, 80, 80); fill: none;"></path></marker></defs></svg>